<svg xmlns="http://www.w3.org/2000/svg" viewBox="0 0 595 595"><g id="Layer_2" data-name="Layer 2"><g id="Layer_1-2" data-name="Layer 1"><path d="M252,594.5A39.55,39.55,0,0,1,212.5,555V382.5H40A39.55,39.55,0,0,1,.5,343V253A39.55,39.55,0,0,1,40,213.5H212.5V40A39.55,39.55,0,0,1,252,.5h90A39.55,39.55,0,0,1,381.5,40V213.5H555A39.55,39.55,0,0,1,594.5,253v90A39.55,39.55,0,0,1,555,382.5H381.5V555A39.55,39.55,0,0,1,342,594.5Z"/><path d="M342,1a39.05,39.05,0,0,1,39,39V214H555a39.05,39.05,0,0,1,39,39v90a39.05,39.05,0,0,1-39,39H381V555a39.05,39.05,0,0,1-39,39H252a39.05,39.05,0,0,1-39-39V382H40A39.05,39.05,0,0,1,1,343V253a39.05,39.05,0,0,1,39-39H213V40A39.05,39.05,0,0,1,252,1h90m0-1H252a40,40,0,0,0-40,40V213H40A40,40,0,0,0,0,253v90a40,40,0,0,0,40,40H212V555a40,40,0,0,0,40,40h90a40,40,0,0,0,40-40V383H555a40,40,0,0,0,40-40V253a40,40,0,0,0-40-40H382V40A40,40,0,0,0,342,0Z"/></g></g></svg>